<svg xmlns="http://www.w3.org/2000/svg" width="288" height="110" viewBox="0 0 288 110" fill="none"><path d="M57.0612 45.4358H61.1918C60.1521 46.5164 60.2319 47.7321 60.2267 48.9173C60.2164 52.1974 60.2165 55.4775 60.2319 58.7576C60.0775 59.8612 60.4661 60.9698 61.2716 61.7446H56.9119C58.0237 60.771 57.8359 59.6165 57.8359 58.5028C57.8359 57.2131 57.8281 55.9261 57.8487 54.6339C57.859 54.0579 57.6222 53.8183 57.0354 53.8209C54.7964 53.8362 52.56 53.8285 50.321 53.8209C49.9015 53.8209 49.5849 53.9305 49.5927 54.4147C49.6235 56.3797 49.6262 58.3473 49.724 60.3072C49.8424 60.8144 50.0405 61.3012 50.3107 61.7472H46.2703C46.942 61.0794 47.2894 60.1568 47.2199 59.2164C47.2199 55.4826 47.2225 51.7514 47.225 48.0176C47.2868 47.072 46.9522 46.1443 46.3011 45.4511H50.4394C49.1269 46.9956 49.6621 48.7516 49.5927 50.4006C49.5232 52.0623 49.3559 51.9858 51.142 51.9909C52.6423 51.9909 52.4417 52.0343 52.4417 50.7319C52.4417 48.1068 52.4313 45.4842 52.4597 42.8591C52.4674 42.2704 52.2924 42.0206 51.6824 42.0792C51.3196 42.1149 50.9516 42.0665 50.5861 42.0792C49.6211 42.12 48.6045 41.8855 47.7089 42.7903V39.6249C49.0111 40.4787 50.3827 40.206 51.7107 40.2773C52.2486 40.3054 52.4597 40.0811 52.4468 39.5663C52.4314 38.8424 52.4545 38.1186 52.4365 37.3948C52.4726 36.4696 52.0685 35.5827 51.3453 34.9965H56.006C55.7615 35.3329 55.5428 35.6846 55.3473 36.0516C54.812 37.2648 55.1155 38.5493 55.1104 39.8033C55.1104 39.9536 55.4759 40.234 55.6715 40.2314C57.0406 40.2162 58.4638 40.5347 59.7892 39.5866V42.7266C58.5359 41.6995 57.1101 42.1863 55.7616 42.0945C55.2469 42.0588 55.0384 42.2602 55.0435 42.8056C55.0718 45.5658 55.0615 48.326 55.0667 51.0862C55.0667 51.9705 55.0821 51.9782 55.9983 51.9858C57.8333 52.0062 57.8333 52.0062 57.8435 50.1686C57.8435 49.557 57.8435 48.9478 57.8384 48.3413C57.9851 47.3091 57.702 46.2616 57.0612 45.4358Z" fill="#C42032"></path><path d="M93.817 66.5717C93.4335 66.5539 93.0501 66.5539 92.6692 66.5768C88.6287 67.0152 85.0796 66.0824 82.2615 63.0112C81.51 62.1931 80.6788 61.4489 79.9119 60.6435C79.742 60.4498 79.6545 60.2001 79.6597 59.9452C79.6983 59.4074 79.8347 58.8773 79.9222 58.3421C80.0148 57.7814 80.2645 57.6871 80.6866 58.0745C81.837 59.1296 83.0645 60.116 84.1222 61.2603C85.7616 63.0979 88.1217 64.1479 90.6 64.1403C91.8739 64.1607 93.1503 63.9976 94.4268 63.9593C96.3467 63.7911 98.2717 64.1862 99.9651 65.0935C100.843 65.7102 101.548 66.5386 102.016 67.4969C102.67 68.5775 103.234 69.7601 104.474 70.3233C105.128 70.619 105.838 70.7948 106.523 71.0268C106.762 71.1109 107.004 71.1924 107.241 71.2765V71.483C106.847 71.5773 106.456 71.6843 106.059 71.7582C104.569 72.0386 103.097 72.5279 101.545 72.0156C100.516 71.7786 99.5817 71.2459 98.8586 70.4839C97.3402 68.5877 95.5129 68.6769 93.5364 69.6301C92.1544 70.4278 90.6282 70.9503 89.0429 71.1746C85.934 71.3402 82.8792 70.3131 80.5167 68.3022C79.6057 67.5912 78.6921 66.8775 77.8068 66.1333C77.6678 65.9626 77.6214 65.7357 77.6755 65.5242C77.8196 65.0756 78.0538 64.6577 78.2366 64.2193C78.4296 63.7631 78.7101 63.6229 79.1322 63.9491C80.1384 64.729 81.1755 65.4681 82.1329 66.3015C83.7465 67.688 85.7642 68.5291 87.8951 68.7024C88.6929 68.7457 89.4933 68.6157 90.2345 68.3175C91.4569 67.869 92.6228 67.2598 93.8118 66.7195C93.8118 66.666 93.8144 66.6176 93.817 66.5717Z" fill="#C42032"></path><path d="M14.4712 67.4483C14.7363 67.2469 15.0167 67.0634 15.2612 66.8417C16.8388 65.3533 18.8102 64.3364 20.9437 63.9031C22.2434 63.6788 23.5662 63.6228 24.8787 63.7374C26.3276 63.8904 27.7688 64.1248 29.1894 64.4434C29.4494 64.5046 29.6758 64.6626 29.8225 64.8843C30.1571 65.4654 30.4196 66.0873 30.7722 66.8213C30.4427 66.9003 30.1056 66.9411 29.7658 66.9437C28.2449 66.8213 26.7316 66.62 25.2338 66.3371C23.3268 65.9267 21.3375 66.1663 19.5849 67.015C17.8761 67.7745 16.6767 69.1763 15.2123 70.2416C13.7531 71.414 11.9748 72.1327 10.1038 72.306C8.93538 72.2729 7.79537 71.9594 6.77623 71.3911C5.32989 70.7615 3.87828 70.2518 2.29296 70.8788C1.87347 71.0444 1.46436 71.256 1.03458 71.4114C0.916194 71.4548 0.753963 71.3809 0.61499 71.363C0.638152 71.2381 0.615 71.0674 0.689634 70.9986C1.68561 69.946 2.75117 68.9647 3.88612 68.0625C5.22437 67.1756 6.89968 66.9487 8.43096 67.4483C9.82326 67.7057 11.2387 67.1348 12.0546 65.9879C12.7134 64.8818 13.3569 63.7655 14.0466 62.6772C15.1687 61.0333 16.8388 59.8329 18.7638 59.2849C21.0003 58.5382 23.3937 58.37 25.7151 58.7905C26.1706 58.8338 26.6262 58.8517 27.0817 58.8364C27.2644 58.8313 27.4472 58.8389 27.6273 58.8593C27.895 58.9077 28.4302 60.3477 28.3761 60.9008C28.3169 61.5074 27.81 61.3443 27.4702 61.3315C26.1268 61.2805 24.7835 61.1149 23.4426 61.1098C20.0532 61.097 17.1297 62.0069 15.4697 65.2794C15.1146 65.9777 14.713 66.6506 14.3296 67.3361L14.4712 67.4483Z" fill="#C42032"></path><path d="M29.8509 87.649C30.0079 87.0271 30.1521 86.4027 30.3245 85.7808C31.2073 82.1516 33.8502 79.1926 37.3838 77.8851C38.1996 77.5436 38.9975 77.1536 39.767 76.7204C40.0629 76.5037 40.4669 76.4935 40.7731 76.6949C41.2106 76.9803 41.6714 77.2301 42.1527 77.4365C42.6751 77.6506 42.6235 77.9055 42.2375 78.1374C41.1875 78.8128 40.0963 79.4194 38.964 79.9521C36.8356 80.8492 34.8771 81.9324 33.8193 84.0707C33.2712 85.1564 32.8544 86.3033 32.5764 87.4859C32.2058 89.6777 31.2561 91.7319 29.8278 93.4446C29.1046 94.1761 28.1756 94.6731 27.1616 94.8719C26.2583 95.1038 25.3395 95.2797 24.4439 95.5371C23.2189 95.8863 22.2049 96.7401 21.6567 97.8819C21.5743 98.0679 21.4662 98.2412 21.3375 98.3992C21.2269 98.4935 21.0828 98.5471 20.9362 98.5471C20.895 98.5471 20.792 98.3253 20.8075 98.2157C20.9799 97.0816 21.1189 95.9372 21.3711 94.8184C21.7494 93.1286 22.9615 91.737 24.5957 91.1203C26.8553 90.1569 27.1461 88.6965 26.9068 86.548C26.7729 85.3603 26.6751 84.165 26.6391 82.9748C26.652 81.8355 26.9712 80.7218 27.5631 79.7456C28.7624 77.5155 30.6075 75.6907 32.8646 74.5107C33.6057 74.1131 34.3186 73.6594 34.9929 73.1599C35.2348 72.9152 35.6311 72.9101 35.8782 73.1497C35.8988 73.1701 35.9194 73.193 35.94 73.2185C36.2746 73.5269 36.6117 73.8277 36.9668 74.1131C37.322 74.3986 37.3246 74.6661 36.9334 74.9159C35.8087 75.6397 34.6996 76.389 33.5543 77.0823C31.673 78.1858 30.2241 79.8883 29.4418 81.9094C29.0918 83.064 29.0479 84.2848 29.3156 85.4597C29.4134 86.1886 29.5472 86.9124 29.663 87.6388L29.8509 87.649Z" fill="#C42032"></path><path d="M70.4567 34.5785C70.9791 33.9107 71.6482 33.3678 72.4125 32.9932C73.7559 32.1445 75.2409 31.5124 76.3141 30.2789C77.4722 28.9485 78.602 27.5569 78.5866 25.7066C78.5094 24.2666 78.3524 22.8292 78.1182 21.4045C78.0771 21.2949 78.0256 21.1929 77.9638 21.0961C77.7759 21.9015 77.6498 22.531 77.4825 23.1503C76.6204 26.8637 73.9052 29.8864 70.2816 31.1684C69.543 31.4615 68.8302 31.8132 68.1456 32.2184C67.7776 32.5013 67.268 32.5141 66.8871 32.249C66.5217 32.0196 66.1408 31.8106 65.7496 31.6246C65.1757 31.3315 65.1114 31.1378 65.6801 30.8014C66.9283 30.0215 68.2305 29.3282 69.5739 28.7242C72.1655 27.7124 74.1291 25.5562 74.8729 22.898C75.2821 21.537 75.5086 20.1174 76.0078 18.7921C76.6152 17.1788 77.4002 15.5757 79.0524 14.7576C80.0201 14.3116 81.0443 14.0006 82.0995 13.835C83.8984 13.603 85.4658 12.5046 86.2842 10.9015C86.382 10.7103 86.6032 10.5829 86.7653 10.4249C86.8297 10.6568 86.8684 10.8938 86.8735 11.1334C86.7834 12.0331 86.7062 12.9378 86.5312 13.8197C86.1992 15.7159 84.866 17.2909 83.0388 17.9485C81.523 18.5321 80.5965 20.0588 80.7869 21.6593C80.8873 22.559 81.0135 23.4536 81.1319 24.3507C81.5179 27.325 80.2928 29.7131 78.3626 31.8565C77.2225 33.0289 75.8972 34.0152 74.4406 34.7722C73.8692 35.1009 73.3211 35.4628 72.7935 35.8579C72.5542 36.1 72.1603 36.1026 71.9184 35.8655C71.9081 35.8553 71.8953 35.8426 71.8876 35.8324C71.4321 35.4297 70.9714 35.0321 70.4567 34.5785Z" fill="#C42032"></path><path d="M93.2611 41.526C92.906 41.837 92.5637 42.1581 92.1983 42.4537C89.7868 44.5564 86.6213 45.6039 83.4172 45.3567C82.5576 45.2828 81.7109 45.0687 80.8565 44.9285C80.1384 44.8113 79.4101 44.7297 78.6998 44.5844C78.4193 44.5436 78.162 44.4035 77.9741 44.1894C77.6576 43.6694 77.3822 43.1266 77.1454 42.5633C76.9652 42.1606 77.2534 42.0766 77.5597 42.0995C78.7152 42.1836 79.876 42.2448 81.0264 42.3849C81.9966 42.5022 82.9488 42.808 83.9216 42.8743C86.5595 42.9864 89.1202 41.9771 90.9577 40.0988C92.2677 38.8729 93.7862 37.8815 95.441 37.1729C97.209 36.4772 99.1983 36.6148 100.851 37.5425C101.342 37.777 101.857 37.9579 102.372 38.1491C103.754 38.618 105.272 38.4575 106.523 37.7132C106.736 37.6572 106.958 37.6393 107.176 37.6623C107.097 37.856 106.994 38.0395 106.865 38.2051C106.054 39.0284 105.269 39.8873 104.394 40.6315C103.09 41.7248 101.316 42.0969 99.6771 41.6229C97.5282 41.0622 96.0689 42.3212 95.2299 43.7765C94.674 44.7348 94.167 45.7288 93.5288 46.631C92.1262 48.6138 90.0235 49.5161 87.7511 50.1048C85.9238 50.5304 84.0271 50.5763 82.1793 50.2348C81.6131 50.1762 81.0418 50.1634 80.4704 50.2017C80.0123 50.2093 79.7319 50.0768 79.7164 49.5594C79.6907 49.2663 79.6263 48.9783 79.5259 48.703C79.2403 47.8059 79.3175 47.6581 80.2929 47.6912C81.6594 47.7396 83.0209 47.9181 84.3875 47.9308C87.7434 47.9614 90.8935 46.8068 92.4067 43.5879C92.7181 42.9227 93.1066 42.3008 93.4567 41.6586L93.2611 41.526Z" fill="#C42032"></path><path d="M14.0363 42.4358C14.358 42.4536 14.6822 42.4511 15.0039 42.4307C18.1977 41.9159 21.4661 42.7212 24.0448 44.6582C25.0691 45.5553 26.0445 46.506 26.9659 47.5076C28.299 48.7921 28.4174 49.3834 27.5913 51.2847C27.1023 50.9687 26.6313 50.6297 26.1783 50.2653C25.4449 49.6536 24.7577 48.9858 24.1298 48.2697C21.8753 45.5273 18.9441 44.6072 15.4852 44.8876C14.1006 45.0125 12.7083 45.0431 11.3211 44.9794C8.99974 44.9997 6.86887 43.7101 5.82914 41.6559C5.40193 40.5243 4.6299 39.5533 3.61848 38.8753C2.94678 38.5618 2.25705 38.2917 1.54932 38.0649C1.20961 37.9629 0.882691 37.8253 0.571289 37.6545C3.36876 36.8364 6.13802 36.0693 8.64725 38.2687C9.08991 38.753 9.57628 39.1964 10.0961 39.5991C11.4447 40.4096 12.8061 40.0655 14.1469 39.4692C15.2226 38.99 16.3036 38.5083 17.4205 38.1209C19.1422 37.6214 20.9824 37.6825 22.6681 38.2942C24.7552 38.9059 26.6545 40.0222 28.1986 41.5438C28.703 42.028 29.3079 42.4078 29.8638 42.841C29.9822 42.9328 30.188 43.0908 30.1674 43.152C29.91 43.8452 29.6295 44.5282 29.3103 45.196C29.1122 45.2393 28.9037 45.2062 28.7261 45.1042C27.7533 44.4365 26.8166 43.7152 25.921 42.9481C24.3948 41.6075 22.5239 40.7154 20.514 40.3714C19.168 40.2006 17.804 40.4478 16.6047 41.0799C15.7323 41.4418 14.8932 41.8853 14.0388 42.2931L14.0363 42.4358Z" fill="#C42032"></path><path d="M21.093 10.2974C21.8393 10.6032 22.5907 10.8963 23.3319 11.2175C24.9146 11.8088 26.1705 13.0321 26.7959 14.5868C26.9735 15.0252 27.0868 15.489 27.1357 15.958C27.3313 18.4684 28.8703 19.2279 30.8674 19.5771C32.7847 19.9084 34.7201 20.1964 36.3028 21.4274C38.3617 22.9617 39.8388 25.1357 40.5002 27.6028C40.8167 28.8032 41.1334 30.0036 41.4937 31.1913C41.6301 31.6449 41.558 31.9176 41.1231 32.1215C40.7937 32.2745 40.4822 32.4656 40.1708 32.6517C39.4837 33.0594 39.3369 33.0365 39.0899 32.249C38.7656 31.2168 38.4903 30.1667 38.251 29.1116C37.8237 26.5757 36.277 24.3583 34.0328 23.0662C32.903 22.5998 31.7193 22.2684 30.5071 22.0849C30.0181 21.9601 29.5162 21.8912 29.0195 21.7969L28.9527 21.9702C29.5189 22.3118 30.1004 22.6355 30.6538 22.9999C33.6932 25.0006 35.6903 27.6538 36.0506 31.362C36.1613 32.5038 36.4289 33.6278 36.609 34.7645C36.6374 34.9149 36.6064 35.0703 36.5189 35.1952C35.9476 35.761 35.3505 36.3039 34.702 36.9105C34.1821 35.8884 33.8527 34.7823 33.7369 33.6431C33.6082 32.4095 33.4101 31.1836 33.1399 29.9705C32.5505 28.0208 31.2509 26.359 29.4931 25.309C28.0828 24.3583 26.5849 23.5224 25.2441 22.4825C23.2419 21.0859 22.2922 18.6239 22.8481 16.2587C23.3628 14.3498 22.7427 12.3185 21.2474 11.011C21.1162 10.8479 21.0131 10.6644 20.941 10.4682L21.093 10.2974Z" fill="#C42032"></path><path d="M53.3527 13.9037C53.6435 14.6123 53.9651 15.308 54.2199 16.0293C55.5607 19.4725 55.1001 23.3465 52.9898 26.387C52.5549 27.0395 52.2872 27.799 51.8857 28.4769C51.721 28.7165 51.4791 28.8949 51.2011 28.9867C50.8022 29.0835 50.4008 29.1549 49.9916 29.1982C49.0317 29.3791 48.8103 29.1829 49.1835 28.273C49.5952 27.1746 50.1176 26.1194 50.7404 25.1229C52.2923 22.9718 52.7711 20.2397 52.0453 17.6961C51.7159 16.6639 51.3015 15.6597 50.8126 14.6938C49.9787 12.9709 49.6595 11.0467 49.8989 9.15048C50.1073 8.2559 50.5062 7.41485 51.0673 6.68338C51.6 6.00799 52.1688 5.35808 52.7659 4.74131C53.6872 3.64794 54.0629 2.20029 53.785 0.801082C53.7412 0.625225 53.7259 0.444276 53.7387 0.265871C53.7774 0.146084 53.8648 0.0492274 53.9832 0.00335163C54.0398 -0.0195863 54.1968 0.07981 54.2405 0.161367C54.8093 1.10947 55.3291 2.08815 55.7898 3.09487C56.5233 4.6419 56.4409 6.4489 55.5659 7.92202C54.1659 10.1572 54.9173 11.6354 56.3277 13.0754C57.442 14.2096 58.6594 15.2596 59.2796 16.7684C60.3476 19.4216 60.3656 22.3754 59.3285 25.0413C58.9013 26.2494 58.4046 27.4371 57.8796 28.612C57.72 28.8618 57.4574 29.0274 57.1641 29.0631C56.6854 29.0657 56.2094 29.03 55.7384 28.9612C55.2855 28.9306 55.1207 28.7318 55.2906 28.296C55.7538 27.0981 56.163 25.8748 56.6829 24.7024C57.5296 22.8062 57.7251 20.6857 57.2387 18.6672C56.881 17.4897 56.1991 16.4345 55.2674 15.6215C54.6678 15.0098 54.0553 14.4109 53.4505 13.8069L53.3527 13.9037Z" fill="#C42032"></path><path d="M54.2894 94.8847C54.2354 94.6885 54.1711 94.4922 54.0939 94.3036C53.0979 92.2315 52.6732 89.9352 52.8688 87.6491C53.067 86.0511 53.6204 84.5168 54.4851 83.1558C54.9947 82.274 55.4476 81.3641 55.9288 80.467C55.9906 80.3497 56.0575 80.1637 56.1501 80.1458C56.9299 79.9904 57.7124 79.8578 58.4999 79.761C58.6286 79.947 58.6877 80.1739 58.6671 80.3981C58.2065 81.5986 57.6557 82.7608 57.0149 83.8771C55.4142 86.1352 54.9663 89.005 55.8053 91.6377C56.0498 92.3666 56.3457 93.0752 56.6957 93.7607C57.563 95.4862 57.998 97.3951 57.9619 99.3245C57.9207 100.487 57.455 101.595 56.652 102.444C56.0421 103.142 55.4038 103.82 54.8351 104.552C53.9935 105.622 53.6847 107.011 53.9883 108.331C53.9909 108.561 53.9575 108.788 53.8854 109.004C53.7053 108.877 53.5457 108.726 53.4093 108.553C52.8766 107.687 52.3902 106.795 51.9552 105.877C51.2115 104.208 51.3659 102.281 52.367 100.749C53.2832 99.536 53.1802 97.8462 52.1225 96.7529C51.3427 95.8124 50.4497 94.9663 49.6442 94.0462C48.0151 92.1882 47.66 89.9607 47.7089 87.5904C47.7552 85.2788 48.7357 83.2679 49.6108 81.2086C49.6185 81.1882 49.6364 81.1704 49.6467 81.15C49.8346 80.7575 49.9581 80.0898 50.2206 80.0311C50.8717 79.9419 51.5357 79.97 52.1765 80.1152C52.3026 80.1356 52.5034 80.5536 52.4494 80.7116C52.0118 81.9656 51.5178 83.2042 51.0468 84.4454C50.1049 86.9278 49.7882 89.4484 51.2449 91.8059C52.089 92.9579 53.0336 94.036 54.0681 95.0274L54.2894 94.8847Z" fill="#C42032"></path><path d="M78.8181 87.091C77.8118 86.4105 76.7516 85.7912 75.802 85.0368C73.9027 83.5942 72.5566 81.5527 71.9827 79.2513C71.7665 78.1197 71.6095 76.9754 71.5117 75.8285C71.5194 75.5787 71.486 75.3315 71.4088 75.0944C70.8812 74.1489 71.3317 73.5423 72.0703 73.0071C72.41 72.7573 72.7419 72.5076 73.0816 72.2527C73.321 72.6503 73.514 73.0734 73.6582 73.5143C73.9129 74.5694 74.0905 75.6399 74.1883 76.7179C74.3633 80.0057 76.3424 82.9341 79.3406 84.3512C81.0675 85.2279 82.6064 86.4334 83.8649 87.8963C84.8016 89.0025 85.2237 90.4476 85.0281 91.8799C84.9586 92.5324 84.9355 93.1874 84.8609 93.8398C84.6859 95.3741 85.283 96.8956 86.4565 97.9126C86.5852 98.0374 86.755 98.17 86.791 98.3229C86.8116 98.4121 86.5389 98.6721 86.5003 98.6542C84.7734 97.831 82.8355 97.3595 81.6465 95.6417C81.0134 94.6707 80.6299 93.5595 80.5295 92.4075C80.3931 91.1561 79.4949 90.1162 78.2673 89.7849C77.3357 89.4765 76.3784 89.2624 75.4056 89.1426C72.6982 88.7476 70.3125 87.1751 68.8996 84.8558C67.9319 83.426 67.2756 81.8127 66.9745 80.1179C66.8227 79.366 66.6092 78.6294 66.3389 77.9133C66.1614 77.4265 66.1716 77.0977 66.7017 76.8811C66.9719 76.7587 67.2294 76.6109 67.4713 76.4452C68.372 75.8769 68.4234 75.8641 68.7554 76.8938C69.0797 77.9031 69.3011 78.9429 69.5662 79.97C70.31 82.8704 71.7485 85.2432 74.7107 86.3646C75.6269 86.6373 76.5636 86.8387 77.5107 86.9686C77.9405 87.0578 78.3703 87.1496 78.8027 87.2413L78.8181 87.091Z" fill="#C42032"></path><path d="M97.9888 23.4281C97.4998 23.8487 97.016 24.2768 96.5167 24.6872C90.8625 29.364 85.2059 34.0382 79.5492 38.7124C78.6742 39.4362 77.7863 40.1499 76.9241 40.8839C76.5895 41.1719 76.3527 41.1515 76.0902 40.787C75.4545 39.9052 74.8035 39.0361 74.1395 38.1747C73.8256 37.7669 74.0495 37.5987 74.3918 37.3948C76.8881 35.8987 79.3793 34.3976 81.8679 32.8887C85.682 30.5873 89.496 28.2833 93.3075 25.9819C94.8182 25.0695 96.3314 24.1596 97.8447 23.2523L97.9888 23.4281Z" fill="#C42032"></path><path d="M97.981 85.7936C97.5409 85.5439 97.0957 85.3069 96.6659 85.0469C90.7261 81.466 84.7863 77.8826 78.8465 74.2992C77.3692 73.4072 75.892 72.5126 74.3994 71.6384C73.9516 71.3785 73.8898 71.1516 74.2218 70.7362C74.8446 69.9589 75.4366 69.156 76.0105 68.3405C76.3039 67.925 76.5226 67.8231 76.9756 68.1977C81.5179 71.9748 86.0705 75.7392 90.636 79.4883C93.0912 81.5068 95.5644 83.505 98.0274 85.5158C98.0557 85.5388 98.0556 85.5999 98.0711 85.6382L97.981 85.7936Z" fill="#C42032"></path><path d="M9.76154 85.5998C11.4987 84.1471 13.2282 82.6842 14.9757 81.2416C17.9018 78.8255 20.833 76.4145 23.772 74.0111C26.0883 72.1073 28.4097 70.206 30.7079 68.2766C31.1994 67.8612 31.4826 67.8969 31.8377 68.427C32.3807 69.2349 32.9752 70.0072 33.5852 70.7692C33.8914 71.1515 33.8579 71.3783 33.4384 71.6281C31.3101 72.8973 29.1921 74.1844 27.0663 75.4587C22.9125 77.9513 18.7588 80.4414 14.6051 82.9288C13.1433 83.8056 11.6866 84.6951 10.2249 85.5718C10.0962 85.6355 9.96491 85.689 9.82851 85.7298L9.76154 85.5998Z" fill="#C42032"></path><path d="M9.99566 23.2649C11.1744 23.9785 12.3505 24.6921 13.5292 25.4058C17.1296 27.5772 20.7301 29.7461 24.3305 31.915C27.3853 33.7552 30.4427 35.5927 33.5001 37.4278C33.8424 37.6317 33.8759 37.8432 33.6546 38.1414C32.9931 39.0309 32.324 39.9178 31.6755 40.8175C31.4284 41.159 31.2225 41.1564 30.9034 40.8914C27.4626 38.0318 24.0139 35.1773 20.5628 32.3305C17.2531 29.5983 13.9436 26.8687 10.6314 24.1391C10.3586 23.9148 10.1167 23.6574 9.85931 23.4153L9.99566 23.2649Z" fill="#C42032"></path><path d="M70.4824 104.633C70.0732 103.665 69.664 102.696 69.2574 101.725C68.3001 99.457 67.3452 97.1913 66.3904 94.923C65.3404 92.4253 64.2956 89.9276 63.2507 87.4274C62.2265 84.9909 61.215 82.5493 60.1598 80.1255C59.9153 79.5673 60.0208 79.4068 60.605 79.2615C61.5727 79.0194 62.5121 78.6677 63.4592 78.3389C63.9533 78.1656 64.1978 78.2548 64.3291 78.8104C64.8515 81.0277 65.4202 83.2374 65.971 85.4471C66.6813 88.2939 67.3915 91.1408 68.1018 93.9876C68.668 96.2432 69.242 98.4962 69.8237 100.747C70.099 101.817 70.3898 102.882 70.6574 103.953C70.6909 104.164 70.7063 104.376 70.7012 104.59L70.4824 104.633Z" fill="#C42032"></path><path d="M37.309 4.27235C37.5972 4.96814 37.883 5.66392 38.1738 6.35715C39.633 9.83607 41.0947 13.3124 42.5565 16.7913C43.9874 20.2091 45.4132 23.6294 46.8364 27.0497C47.1143 27.7149 47.3923 28.3877 47.6857 29.0453C47.8607 29.4378 47.7525 29.5831 47.3305 29.7003C46.3242 29.9806 45.3283 30.312 44.3426 30.6611C43.851 30.8344 43.6117 30.7911 43.4753 30.2202C42.9142 27.8703 42.2992 25.5332 41.7201 23.1885C41.172 20.9762 40.6598 18.7538 40.1065 16.539C39.4271 13.8222 38.722 11.1104 38.0297 8.39354C37.7337 7.22881 37.4428 6.07425 37.1546 4.90952C37.1237 4.71582 37.1108 4.51703 37.116 4.32078L37.309 4.27235Z" fill="#C42032"></path><path d="M70.732 4.39209C70.5724 5.12865 70.4309 5.87031 70.2482 6.60177C69.5121 9.55821 68.7684 12.5121 68.0169 15.4635C67.3375 18.1523 66.6452 20.8386 65.9709 23.5248C65.4047 25.7779 64.8385 28.0334 64.3057 30.2941C64.1951 30.7605 63.9815 30.8293 63.58 30.6968C62.5223 30.3476 61.4645 29.9908 60.3965 29.6722C59.9616 29.5422 60.0156 29.3256 60.1443 29.007C60.9833 27.0088 61.8068 25.0031 62.6432 23.0049C63.9866 19.7987 65.3301 16.5925 66.6761 13.3888C67.9243 10.412 69.1699 7.43264 70.4129 4.45581C70.4335 4.40229 70.503 4.3717 70.5493 4.32838L70.732 4.39209Z" fill="#C42032"></path><path d="M37.0517 104.567C37.2396 103.795 37.4223 103.022 37.6153 102.253C38.3282 99.4263 39.0462 96.5999 39.7643 93.776C40.4694 90.9954 41.1823 88.2173 41.8798 85.4368C42.4228 83.2679 42.9555 81.0964 43.4753 78.9224C43.6503 78.1858 43.7558 78.1501 44.4996 78.4229C45.3901 78.7695 46.3037 79.06 47.2328 79.2894C47.8118 79.4245 47.8839 79.6309 47.6755 80.1203C46.821 82.1159 45.982 84.1166 45.1405 86.1172C43.5526 89.8842 41.9672 93.6562 40.3819 97.4282C39.4014 99.7627 38.4312 102.1 37.4558 104.434C37.4121 104.508 37.3579 104.577 37.2987 104.638L37.0517 104.567Z" fill="#C42032"></path><path d="M108.059 54.5626C107.511 54.6314 106.968 54.7283 106.414 54.7665C103.727 54.9551 101.043 55.1182 98.3615 55.3145C94.1563 55.6229 89.9512 55.9491 85.7485 56.2677C84.1117 56.3926 82.4749 56.4945 80.8381 56.6398C80.3337 56.6831 80.1253 56.571 80.1407 56.0358C80.1716 55.001 80.1613 53.9663 80.1355 52.9315C80.1227 52.4676 80.3182 52.3402 80.7532 52.3759C85.3419 52.7276 89.9306 53.0768 94.5244 53.4157C97.2756 53.6171 100.029 53.7827 102.783 53.9713C104.53 54.0911 106.275 54.2288 108.02 54.3587L108.059 54.5626Z" fill="#C42032"></path><path d="M0 54.3431L2.08462 54.1902C6.72477 53.8461 11.3648 53.4893 16.0075 53.158C18.6017 52.9719 21.201 52.8266 23.7977 52.6508C24.8658 52.5794 25.9339 52.4851 27.0019 52.3781C27.5115 52.3271 27.6839 52.4724 27.6504 53.0152C27.5861 53.9837 27.5861 54.9548 27.6504 55.9233C27.6916 56.512 27.5552 56.693 26.9555 56.6445C22.4518 56.2877 17.948 55.9437 13.4443 55.6123C9.4398 55.3192 5.43533 55.0542 1.42828 54.7713C0.957318 54.7381 0.488999 54.6642 0.0206087 54.6082L0 54.3431Z" fill="#C42032"></path><path d="M72.0756 48.1858C71.5248 47.7933 70.9534 47.4288 70.3615 47.1C69.2678 46.4603 67.8549 46.8197 67.2089 47.9029C66.6427 48.851 66.8434 50.0641 67.6824 50.7854C68.3876 51.4225 69.1443 52.0036 69.9421 52.5261C71.0873 53.148 72.0394 54.0681 72.6957 55.1869C73.9413 57.8477 72.1707 61.7089 69.0876 62.1396C67.8857 62.3308 66.6556 62.1855 65.5361 61.7166C65.3611 61.6401 65.1217 61.4999 65.0857 61.3496C64.8798 60.4856 64.728 59.6088 64.5582 58.7372L64.7614 58.6352C64.9312 58.7525 65.096 58.8774 65.253 59.0124C65.9916 59.7286 66.9387 60.1976 67.9604 60.3581C69.103 60.5263 70.2252 59.9401 70.7296 58.9079C71.2649 57.784 70.9714 56.4459 70.0141 55.6431C69.1442 54.9524 68.2332 54.3127 67.2887 53.724C65.6056 52.7147 64.6482 50.844 64.818 48.9045C64.8566 46.8375 66.5089 45.1554 68.5934 45.0636C69.6306 45.0917 70.6652 45.2089 71.6817 45.4128C71.8233 45.4332 72.0498 45.6193 72.055 45.7339C72.091 46.5087 72.0756 47.2912 72.0756 48.1858Z" fill="#C42032"></path><path d="M41.1591 61.7597H36.9487C37.6642 60.985 38.0039 59.9375 37.8804 58.8951C37.8701 55.5512 37.8803 52.2048 37.8726 48.861C37.8726 47.6963 38.058 46.4882 36.9205 45.4382H41.1411C40.194 46.4704 40.2454 47.6045 40.248 48.731C40.248 52.0978 40.248 55.4646 40.248 58.8313C40.1296 59.8916 40.4591 60.9518 41.1591 61.7597Z" fill="#C42032"></path><path d="M61.9794 66.4876L63.7577 68.1315C62.1029 68.6973 61.1249 70.0099 59.8973 70.9911C58.6388 71.9978 57.4524 73.0912 56.2145 74.1208C55.9983 74.2381 55.7616 74.3145 55.5171 74.3477C55.5608 74.1132 55.6458 73.8889 55.7693 73.6825C57.4601 71.7914 59.1819 69.9257 60.8676 68.0296C61.2665 67.5377 61.6371 67.0228 61.9794 66.4876Z" fill="#C42032"></path><path d="M44.2757 68.1263L45.771 66.3957C46.8622 68.3684 48.5169 69.7141 49.8578 71.3121C50.5398 72.1251 51.2963 72.877 51.9938 73.6798C52.107 73.876 52.1817 74.0901 52.2177 74.3119C51.9809 74.2481 51.6824 74.2558 51.5151 74.1131C49.7522 72.617 48.0253 71.0878 46.2624 69.5968C45.6036 69.0438 44.8779 68.5697 44.2757 68.1263Z" fill="#C42032"></path><path d="M55.2185 64.4946C54.4259 65.7409 54.6781 67.0432 54.57 68.287C54.4078 70.1526 54.3229 72.0233 54.1788 73.8889C54.1633 74.0852 53.978 74.2687 53.8699 74.4573C53.7618 74.2687 53.5713 74.0852 53.561 73.8915C53.3937 71.302 53.2728 68.71 53.0927 66.1231C53 65.5675 52.8559 65.0221 52.6603 64.4946H55.2185Z" fill="#C42032"></path><path d="M212.804 36.6663H221.84C219.951 38.0765 219.816 39.8426 219.819 41.6826C219.833 48.8276 219.819 55.9692 219.819 63.1141C219.819 65.038 219.775 66.9821 222.03 68.5904C219.755 68.5904 218.033 68.5031 216.327 68.6173C215.015 68.7079 214.591 68.2278 214.751 67.009C214.754 66.5456 214.72 66.0856 214.645 65.6256C212.164 68.0901 208.76 69.4231 205.247 69.3056C201.43 69.2753 198.036 68.2412 195.605 65.075C194.323 63.2082 193.703 60.9754 193.835 58.7258C193.771 52.8634 193.767 46.9977 193.76 41.132C193.906 39.4296 193.181 37.7676 191.828 36.7066H200.735C198.914 38.1235 198.839 40.0004 198.846 41.9243C198.866 46.9372 198.846 51.9468 198.87 56.9597C198.887 57.8629 198.982 58.7661 199.151 59.6558C199.697 62.765 201.287 65.0817 204.593 65.6021C208.18 66.1696 211.469 65.5148 213.771 62.3453C214.466 61.3178 214.805 60.0957 214.737 58.8601C214.737 53.2092 214.713 47.5584 214.747 41.9076C214.771 39.9971 214.601 38.1907 212.804 36.6663Z" fill="#958C64"></path><path d="M279.288 42.3171C277.779 41.0311 275.979 40.1145 274.043 39.6511C272.049 39.1341 269.937 39.265 268.025 40.0305C264.909 41.293 264.36 44.5767 266.831 46.8398C268.733 48.579 271.158 49.3915 273.405 50.5096C275.223 51.3054 276.975 52.2455 278.64 53.3166C282.76 56.2511 283.255 61.029 279.888 64.8063C277.284 67.6468 273.595 69.2719 269.723 69.2954C266.977 69.3827 264.231 69.0637 261.58 68.3452C260.647 68.2377 259.928 67.4755 259.881 66.5455C259.701 65.1353 259.277 63.7553 258.949 62.3082C259.786 62.3149 260.186 62.879 260.718 63.1745C264.841 65.461 269.083 66.945 273.724 64.7089C276.992 63.1342 277.457 59.7128 274.819 57.2483C273.646 56.2276 272.314 55.3983 270.873 54.7973C268.832 53.8504 266.767 52.9371 264.773 51.8929C260.396 49.6031 258.637 45.3993 260.264 41.3736C261.376 38.6204 263.732 37.321 266.36 36.5924C270.276 35.5414 274.409 35.5448 278.321 36.6091C278.796 36.73 279.278 36.8509 279.274 37.4956C279.284 38.9763 279.288 40.4469 279.288 42.3171Z" fill="#958C64"></path><path d="M185.98 42.1827C183.83 40.7591 181.901 39.6242 179.575 39.4462C177.27 39.2683 175.042 39.3892 173.201 41.0109C171.842 42.2431 171.591 44.2711 172.608 45.7921C173.855 47.34 175.496 48.5285 177.361 49.2404C179.673 50.3719 182.074 51.3154 184.301 52.6215C190.947 56.523 189.76 63.0737 184.291 66.8442C180.263 69.621 175.707 69.7217 171.099 68.926C166.936 68.2074 166.949 68.1235 166.013 64.0407C165.885 63.4766 165.769 62.9091 165.62 62.204C166.312 62.3786 166.942 62.7379 167.444 63.2415C170.268 65.0849 173.625 65.9612 177.002 65.7362C178.243 65.6624 179.45 65.3065 180.531 64.6954C182.793 63.715 183.823 61.1028 182.833 58.8599C182.491 58.091 181.938 57.4295 181.233 56.9628C179.623 55.8045 177.873 54.8476 176.025 54.1089C173.879 53.2527 171.831 52.1749 169.916 50.8889C167.329 49.19 165.983 46.1514 166.474 43.1161C166.925 39.9197 169.092 38.0528 171.977 36.9918C176.185 35.5783 180.721 35.444 185.007 36.6024C185.6 36.646 186.044 37.1564 186 37.7439C185.997 37.7674 185.997 37.7909 185.993 37.8145C185.932 39.1407 185.98 40.4737 185.98 42.1827Z" fill="#958C64"></path><path d="M142.195 36.5588C147.783 36.5588 153.37 36.5722 158.957 36.5386C159.541 36.5386 159.737 36.6998 159.731 37.2269C159.731 38.7076 159.731 40.1816 159.731 42.0149C156.754 39.5168 153.475 40.2823 150.309 40.2622C149.132 40.2521 148.732 40.7255 148.786 41.904C148.878 43.9253 148.864 45.9567 148.786 47.9746C148.749 49.0557 149.047 49.509 150.214 49.4553C152.092 49.3646 153.977 49.4553 155.852 49.368C156.594 49.3344 156.957 49.4251 156.93 50.251C156.886 51.4665 156.92 52.6819 156.92 54.1156C154.536 52.4402 152.004 53.2158 149.586 53.0479C148.922 53.0009 148.8 53.4273 148.8 53.9713C148.807 57.1677 148.807 60.3641 148.8 63.5606C148.8 64.1078 148.929 64.4805 149.573 64.5275C152.251 64.7122 154.909 65.2662 157.605 65.001C159.91 64.682 162.114 63.8594 164.057 62.5936C163.423 64.41 162.789 66.2231 162.155 68.0396C161.975 68.5466 161.541 68.5869 161.1 68.5802C154.808 68.5734 148.518 68.56 142.226 68.5466C142.182 68.5466 142.138 68.4929 141.975 68.3888C143.673 66.982 143.765 65.0513 143.758 63.0804C143.731 55.781 143.714 48.4816 143.707 41.1822C143.819 39.5101 143.277 37.8548 142.195 36.5588Z" fill="#958C64"></path><path d="M252.012 68.4929H242.556C244.777 66.5992 244.472 64.2657 244.475 62.0127C244.482 55.2942 244.444 48.5756 244.522 41.8604C244.539 40.4234 244.082 40.0339 242.692 40.1011C239.905 40.2387 237.053 39.9197 234.456 41.9712C234.721 40.3059 235.134 38.6707 235.694 37.0792C235.87 36.448 236.287 36.4648 236.806 36.4849C244.071 36.7367 251.337 36.6461 258.603 36.5017C259.518 36.4816 259.766 36.6797 259.518 37.5392C259.111 38.9494 258.745 40.3697 258.321 41.9041C255.853 39.359 252.88 40.3025 250.113 40.232C249.513 40.2152 249.581 40.8095 249.581 41.2158C249.581 48.9987 249.588 56.785 249.605 64.5679C249.605 66.1493 250.51 67.3446 252.012 68.4929Z" fill="#958C64"></path><path d="M130.129 36.6428H138.768C136.547 38.466 136.856 40.86 136.852 43.1498C136.832 51.9468 136.842 60.7403 136.839 69.5372C136.839 75.1545 134.991 77.5652 129.526 79.0325C128.447 79.3246 127.325 79.4488 126.21 79.3951C126.623 79.0661 127.017 78.7001 127.454 78.3979C130.166 76.6251 131.773 73.6033 131.709 70.3867C131.787 60.5254 131.78 50.6675 131.76 40.8062C131.858 39.2483 131.262 37.7273 130.129 36.6428Z" fill="#958C64"></path><path d="M234.7 36.7269C233.371 37.8819 232.666 39.5875 232.795 41.3368C232.795 48.8545 232.788 56.3755 232.771 63.8932C232.673 65.6291 233.375 67.3146 234.677 68.483H225.78C227.926 66.8042 227.709 64.5949 227.713 62.4595C227.716 55.422 227.716 48.3844 227.706 41.3469C227.706 39.6513 227.557 38.0195 225.675 36.7369L234.7 36.7269Z" fill="#958C64"></path><path d="M285.36 41.6424C286.845 41.6121 288.022 40.3967 287.995 38.9261C287.964 37.4554 286.737 36.2904 285.252 36.3172C283.794 36.3474 282.624 37.5226 282.617 38.9697C282.634 40.4571 283.862 41.6524 285.36 41.6424ZM285.36 41.0481C284.208 41.0481 283.272 40.1214 283.272 38.9798C283.272 37.8382 284.208 36.9115 285.36 36.9115C286.51 36.9115 287.445 37.8315 287.449 38.9697C287.452 40.1147 286.516 41.0447 285.36 41.0481ZM284.147 40.2825H285.052L284.953 39.8662V39.2753H285.252L285.706 39.9434L285.774 40.2825H286.757L285.971 39.1645C286.364 39.1342 286.666 38.8086 286.666 38.4191C286.666 37.8819 286.289 37.5965 285.625 37.5965H284.143L284.231 38.0128V39.8628L284.147 40.2825ZM284.953 38.8153V38.0598H285.438C285.76 38.0598 285.913 38.1807 285.913 38.4426C285.913 38.7045 285.693 38.8153 285.404 38.8153H284.953Z" fill="#958C64"></path></svg>